HIERARCHY
ROOT newVegas:Hips
{
	OFFSET 0.000000 96.479958 0.000000
	CHANNELS 6 Xposition Yposition Zposition Xrotation Yrotation Zrotation
	JOINT newVegas:Pelvis
	{
		OFFSET 0.000000 0.000000 0.000000
		CHANNELS 3 Xrotation Yrotation Zrotation
		JOINT newVegas:LeftUpLeg
		{
			OFFSET 18.735201 -5.666702 -4.541200
			CHANNELS 3 Xrotation Yrotation Zrotation
			JOINT newVegas:LeftLeg
			{
				OFFSET -0.021200 -31.938179 0.493100
				CHANNELS 3 Xrotation Yrotation Zrotation
				JOINT newVegas:LeftFoot
				{
					OFFSET 0.021200 -31.938179 -4.336299
					CHANNELS 3 Xrotation Yrotation Zrotation
					JOINT newVegas:LeftToeBase
					{
						OFFSET 0.943001 -26.722000 15.023500
						CHANNELS 3 Xrotation Yrotation Zrotation
						End Site
						{
							OFFSET 0.000000 30.670183 0.000000
						}
					}
				}
				JOINT newVegas:Left_PantLeg
				{
					OFFSET 0.663870 -9.044666 -1.108900
					CHANNELS 3 Xrotation Yrotation Zrotation
					End Site
					{
						OFFSET 1.415995 20.635357 0.000000
					}
				}
			}
		}
		JOINT newVegas:RightUpLeg
		{
			OFFSET -18.735201 -5.666702 -4.541200
			CHANNELS 3 Xrotation Yrotation Zrotation
			JOINT newVegas:RightLeg
			{
				OFFSET 0.018946 -31.938133 0.493100
				CHANNELS 3 Xrotation Yrotation Zrotation
				JOINT newVegas:RightFoot
				{
					OFFSET -0.018946 -31.938126 -4.336299
					CHANNELS 3 Xrotation Yrotation Zrotation
					JOINT newVegas:RightToeBase
					{
						OFFSET -0.943001 -26.722004 15.023500
						CHANNELS 3 Xrotation Yrotation Zrotation
						End Site
						{
							OFFSET 0.000000 30.670187 0.000000
						}
					}
				}
				JOINT newVegas:Right_PantLeg
				{
					OFFSET -0.661674 -9.044716 -1.108900
					CHANNELS 3 Xrotation Yrotation Zrotation
					End Site
					{
						OFFSET -1.415958 20.635269 0.000000
					}
				}
			}
		}
	}
	JOINT newVegas:Spine
	{
		OFFSET 0.000000 10.199997 -0.299500
		CHANNELS 3 Xrotation Yrotation Zrotation
		JOINT newVegas:Spine1
		{
			OFFSET 0.000000 11.900002 -1.516600
			CHANNELS 3 Xrotation Yrotation Zrotation
			JOINT newVegas:Spine2
			{
				OFFSET 0.000000 13.600006 -2.842500
				CHANNELS 3 Xrotation Yrotation Zrotation
				JOINT newVegas:Neck
				{
					OFFSET 0.000000 9.624100 -2.890100
					CHANNELS 3 Xrotation Yrotation Zrotation
					JOINT newVegas:Head
					{
						OFFSET 0.000000 14.068802 -1.351900
						CHANNELS 3 Xrotation Yrotation Zrotation
						JOINT newVegas:Hair_Back
						{
							OFFSET 0.000000 3.231903 -17.524799
							CHANNELS 3 Xrotation Yrotation Zrotation
							End Site
							{
								OFFSET 0.000000 19.849884 0.000000
							}
						}
						JOINT newVegas:Hair_Front
						{
							OFFSET 0.000000 31.260406 4.573800
							CHANNELS 3 Xrotation Yrotation Zrotation
							JOINT newVegas:Hair_Front1
							{
								OFFSET 0.000000 2.284103 11.993300
								CHANNELS 3 Xrotation Yrotation Zrotation
								JOINT newVegas:Hair_Front2
								{
									OFFSET 0.000000 2.284103 11.993300
									CHANNELS 3 Xrotation Yrotation Zrotation
									End Site
									{
										OFFSET 0.000000 12.208862 0.000000
									}
								}
							}
						}
						JOINT newVegas:Jowel
						{
							OFFSET 0.000000 -7.458206 6.864100
							CHANNELS 3 Xrotation Yrotation Zrotation
							End Site
							{
								OFFSET 0.000000 19.849884 0.000000
							}
						}
					}
				}
				JOINT newVegas:LeftShoulder
				{
					OFFSET 15.263000 10.923401 -0.547700
					CHANNELS 3 Xrotation Yrotation Zrotation
					JOINT newVegas:LeftArm
					{
						OFFSET 25.438599 -2.830597 -13.032500
						CHANNELS 3 Xrotation Yrotation Zrotation
						JOINT newVegas:LeftForeArm
						{
							OFFSET 29.960503 0.000000 0.000000
							CHANNELS 3 Xrotation Yrotation Zrotation
							JOINT newVegas:LeftHand
							{
								OFFSET 27.849251 0.000000 0.000000
								CHANNELS 3 Xrotation Yrotation Zrotation
								JOINT newVegas:LeftHandThumb1
								{
									OFFSET 4.487587 -3.305161 6.305391
									CHANNELS 3 Xrotation Yrotation Zrotation
									JOINT newVegas:LeftHandThumb2
									{
										OFFSET 5.480453 -3.164139 3.164143
										CHANNELS 3 Xrotation Yrotation Zrotation
										JOINT newVegas:LeftHandThumb3
										{
											OFFSET 5.159721 -2.978973 2.978967
											CHANNELS 3 Xrotation Yrotation Zrotation
											End Site
											{
												OFFSET 2.494507 5.926697 1.738678
											}
										}
									}
								}
								JOINT newVegas:LeftHandIndex1
								{
									OFFSET 18.578728 -0.527832 5.208049
									CHANNELS 3 Xrotation Yrotation Zrotation
									JOINT newVegas:LeftHandIndex2
									{
										OFFSET 3.192009 0.000000 0.000000
										CHANNELS 3 Xrotation Yrotation Zrotation
										JOINT newVegas:LeftHandIndex3
										{
											OFFSET 3.835129 0.000000 0.000000
											CHANNELS 3 Xrotation Yrotation Zrotation
											End Site
											{
												OFFSET -0.034599 3.816971 0.371180
											}
										}
									}
								}
								JOINT newVegas:LeftHandMiddle1
								{
									OFFSET 18.476105 0.000000 0.000000
									CHANNELS 3 Xrotation Yrotation Zrotation
									JOINT newVegas:LeftHandMiddle2
									{
										OFFSET 3.324875 0.000000 0.000000
										CHANNELS 3 Xrotation Yrotation Zrotation
										JOINT newVegas:LeftHandMiddle3
										{
											OFFSET 4.596550 0.000000 0.000000
											CHANNELS 3 Xrotation Yrotation Zrotation
											End Site
											{
												OFFSET 0.057701 4.578827 0.399218
											}
										}
									}
								}
								JOINT newVegas:LeftHandRing1
								{
									OFFSET 17.732719 0.121887 -4.201567
									CHANNELS 3 Xrotation Yrotation Zrotation
									JOINT newVegas:LeftHandRing2
									{
										OFFSET 2.733170 0.000000 0.000000
										CHANNELS 3 Xrotation Yrotation Zrotation
										JOINT newVegas:LeftHandRing3
										{
											OFFSET 3.178268 0.000000 0.000000
											CHANNELS 3 Xrotation Yrotation Zrotation
											End Site
											{
												OFFSET 0.119102 3.170624 0.185394
											}
										}
									}
								}
								JOINT newVegas:LeftHandPinky1
								{
									OFFSET 15.989624 -0.606689 -7.535461
									CHANNELS 3 Xrotation Yrotation Zrotation
									JOINT newVegas:LeftHandPinky2
									{
										OFFSET 2.538986 0.000000 0.000000
										CHANNELS 3 Xrotation Yrotation Zrotation
										JOINT newVegas:LeftHandPinky3
										{
											OFFSET 2.593102 0.000000 0.000000
											CHANNELS 3 Xrotation Yrotation Zrotation
											End Site
											{
												OFFSET -0.150902 2.584198 0.152708
											}
										}
									}
								}
							}
							JOINT newVegas:Left_Sleeve
							{
								OFFSET 0.267448 -0.649796 0.577675
								CHANNELS 3 Xrotation Yrotation Zrotation
								End Site
								{
									OFFSET 0.000000 15.991241 0.000000
								}
							}
							JOINT newVegas:Left_CapeC
							{
								OFFSET 15.715958 -8.608795 -6.935905
								CHANNELS 3 Xrotation Yrotation Zrotation
								JOINT newVegas:Left_CapeC1
								{
									OFFSET 0.000000 -8.688499 0.000000
									CHANNELS 3 Xrotation Yrotation Zrotation
									End Site
									{
										OFFSET 0.000000 8.688499 0.000000
									}
								}
							}
						}
						JOINT newVegas:Left_CapeB
						{
							OFFSET 26.118385 -8.608795 -7.079235
							CHANNELS 3 Xrotation Yrotation Zrotation
							JOINT newVegas:Left_CapeB1
							{
								OFFSET 0.000000 -8.688499 0.000000
								CHANNELS 3 Xrotation Yrotation Zrotation
								End Site
								{
									OFFSET 0.000000 8.688499 0.000000
								}
							}
						}
						JOINT newVegas:Left_CapeA
						{
							OFFSET 5.115639 -8.608795 -10.395809
							CHANNELS 3 Xrotation Yrotation Zrotation
							JOINT newVegas:Left_CapeA1
							{
								OFFSET 0.000000 -8.688499 0.000000
								CHANNELS 3 Xrotation Yrotation Zrotation
								End Site
								{
									OFFSET 0.000000 8.688499 0.000000
								}
							}
						}
					}
				}
				JOINT newVegas:RightShoulder
				{
					OFFSET -15.263000 10.923401 -0.547700
					CHANNELS 3 Xrotation Yrotation Zrotation
					JOINT newVegas:RightArm
					{
						OFFSET -25.438599 -2.830597 -13.032500
						CHANNELS 3 Xrotation Yrotation Zrotation
						JOINT newVegas:RightForeArm
						{
							OFFSET -29.960503 0.000000 0.000000
							CHANNELS 3 Xrotation Yrotation Zrotation
							JOINT newVegas:RightHand
							{
								OFFSET -27.849251 0.000000 0.000000
								CHANNELS 3 Xrotation Yrotation Zrotation
								JOINT newVegas:RightHandThumb1
								{
									OFFSET -4.487587 -3.305161 6.305391
									CHANNELS 3 Xrotation Yrotation Zrotation
									JOINT newVegas:RightHandThumb2
									{
										OFFSET -5.480453 -3.164139 3.164143
										CHANNELS 3 Xrotation Yrotation Zrotation
										JOINT newVegas:RightHandThumb3
										{
											OFFSET -5.159721 -2.978973 2.978967
											CHANNELS 3 Xrotation Yrotation Zrotation
											End Site
											{
												OFFSET -2.494507 5.926697 1.738678
											}
										}
									}
								}
								JOINT newVegas:RightHandIndex1
								{
									OFFSET -18.578728 -0.527832 5.208049
									CHANNELS 3 Xrotation Yrotation Zrotation
									JOINT newVegas:RightHandIndex2
									{
										OFFSET -3.192009 0.000000 0.000000
										CHANNELS 3 Xrotation Yrotation Zrotation
										JOINT newVegas:RightHandIndex3
										{
											OFFSET -3.835129 0.000000 0.000000
											CHANNELS 3 Xrotation Yrotation Zrotation
											End Site
											{
												OFFSET 0.034599 3.816971 0.371180
											}
										}
									}
								}
								JOINT newVegas:RightHandMiddle1
								{
									OFFSET -18.476105 0.000000 0.000000
									CHANNELS 3 Xrotation Yrotation Zrotation
									JOINT newVegas:RightHandMiddle2
									{
										OFFSET -3.324875 0.000000 0.000000
										CHANNELS 3 Xrotation Yrotation Zrotation
										JOINT newVegas:RightHandMiddle3
										{
											OFFSET -4.596550 0.000000 0.000000
											CHANNELS 3 Xrotation Yrotation Zrotation
											End Site
											{
												OFFSET -0.057701 4.578827 0.399218
											}
										}
									}
								}
								JOINT newVegas:RightHandRing1
								{
									OFFSET -17.732719 0.121887 -4.201567
									CHANNELS 3 Xrotation Yrotation Zrotation
									JOINT newVegas:RightHandRing2
									{
										OFFSET -2.733170 0.000000 0.000000
										CHANNELS 3 Xrotation Yrotation Zrotation
										JOINT newVegas:RightHandRing3
										{
											OFFSET -3.178268 0.000000 0.000000
											CHANNELS 3 Xrotation Yrotation Zrotation
											End Site
											{
												OFFSET -0.119102 3.170624 0.185394
											}
										}
									}
								}
								JOINT newVegas:RightHandPinky1
								{
									OFFSET -15.989624 -0.606689 -7.535461
									CHANNELS 3 Xrotation Yrotation Zrotation
									JOINT newVegas:RightHandPinky2
									{
										OFFSET -2.538986 0.000000 0.000000
										CHANNELS 3 Xrotation Yrotation Zrotation
										JOINT newVegas:RightHandPinky3
										{
											OFFSET -2.593102 0.000000 0.000000
											CHANNELS 3 Xrotation Yrotation Zrotation
											End Site
											{
												OFFSET 0.150902 2.584198 0.152708
											}
										}
									}
								}
							}
							JOINT newVegas:Right_CapeC
							{
								OFFSET -15.715958 -8.608795 -6.935905
								CHANNELS 3 Xrotation Yrotation Zrotation
								JOINT newVegas:Right_CapeC1
								{
									OFFSET 0.000000 -8.688499 0.000000
									CHANNELS 3 Xrotation Yrotation Zrotation
									End Site
									{
										OFFSET 0.000000 8.688499 0.000000
									}
								}
							}
							JOINT newVegas:Right_Sleeve
							{
								OFFSET -0.267448 -0.649994 0.577675
								CHANNELS 3 Xrotation Yrotation Zrotation
								End Site
								{
									OFFSET 0.000000 15.991302 0.000000
								}
							}
						}
						JOINT newVegas:Right_CapeA
						{
							OFFSET -5.115540 -8.608795 -10.395824
							CHANNELS 3 Xrotation Yrotation Zrotation
							JOINT newVegas:Right_CapeA1
							{
								OFFSET 0.000000 -8.688499 0.000000
								CHANNELS 3 Xrotation Yrotation Zrotation
								End Site
								{
									OFFSET 0.000000 8.688499 0.000000
								}
							}
						}
						JOINT newVegas:Right_CapeB
						{
							OFFSET -26.118187 -8.608795 -7.079266
							CHANNELS 3 Xrotation Yrotation Zrotation
							JOINT newVegas:Right_CapeB1
							{
								OFFSET 0.000000 -8.688499 0.000000
								CHANNELS 3 Xrotation Yrotation Zrotation
								End Site
								{
									OFFSET 0.000000 8.688499 0.000000
								}
							}
						}
					}
				}
				JOINT newVegas:Left_Collar
				{
					OFFSET 18.625099 8.655502 8.828100
					CHANNELS 3 Xrotation Yrotation Zrotation
					JOINT newVegas:Left_Collar1
					{
						OFFSET 14.783401 10.540405 -1.259500
						CHANNELS 3 Xrotation Yrotation Zrotation
						End Site
						{
							OFFSET 0.000000 18.199875 0.000000
						}
					}
				}
				JOINT newVegas:Collar_Back
				{
					OFFSET 0.000000 15.630707 -20.132601
					CHANNELS 3 Xrotation Yrotation Zrotation
					End Site
					{
						OFFSET 0.000000 22.523010 0.000000
					}
				}
				JOINT newVegas:Left_Peck
				{
					OFFSET 17.239599 -5.132599 25.482599
					CHANNELS 3 Xrotation Yrotation Zrotation
					End Site
					{
						OFFSET 0.000000 22.523010 0.000000
					}
				}
				JOINT newVegas:Right_Peck
				{
					OFFSET -17.239599 -5.132202 25.482599
					CHANNELS 3 Xrotation Yrotation Zrotation
					End Site
					{
						OFFSET 0.000000 22.523010 0.000000
					}
				}
				JOINT newVegas:Right_Collar
				{
					OFFSET -18.625099 8.655792 8.828100
					CHANNELS 3 Xrotation Yrotation Zrotation
					JOINT newVegas:Right_Collar1
					{
						OFFSET -14.783401 10.539993 -1.259500
						CHANNELS 3 Xrotation Yrotation Zrotation
						End Site
						{
							OFFSET 0.000000 18.199631 0.000000
						}
					}
				}
			}
		}
		JOINT newVegas:Belly
		{
			OFFSET 0.000000 -6.540398 9.014299
			CHANNELS 3 Xrotation Yrotation Zrotation
			End Site
			{
				OFFSET 0.000000 11.566666 0.000000
			}
		}
	}
	JOINT newVegas:ElvisFacialAnim_Joint
	{
		OFFSET 1.000000 -95.330101 -8.825800
		CHANNELS 3 Xrotation Yrotation Zrotation
		End Site
		{
			OFFSET 0.000000 35.315800 0.000000
		}
	}
}
MOTION
Frames: 4
Frame Time: 0.016667
-71.204277 22.700287 5.875319 -59.275660 9.165892 98.595871 0.000001 0.000001 -0.000001 -34.536114 25.798446 3.840041 64.799330 -3.905955 -7.748171 -22.132373 -11.258711 3.500517 -0.000000 0.000002 0.000000 -0.000000 -0.000001 0.000000 -63.945788 -7.621053 -34.354339 119.088446 3.859606 6.696653 7.444050 10.751371 27.522792 -0.000001 0.000001 0.000000 -0.000000 -0.000000 -0.000000 13.670502 -0.288286 -5.963912 16.440305 0.246666 -3.275168 16.425633 0.382585 -3.359047 10.960304 2.494063 -2.543663 10.960297 2.494056 -2.543668 0.000001 -0.000000 0.000000 10.960345 2.494066 -2.543670 10.960289 2.494048 -2.543658 -0.000000 0.000001 -0.000000 0.000001 -0.000000 0.000002 5.814968 1.516418 -4.688141 -74.915257 -6.740966 -27.974754 58.640815 -0.227362 0.365224 -133.094787 1.338620 -9.402835 40.109941 -15.297179 -0.360485 5.639804 28.097945 11.338831 0.000002 0.000003 -0.000006 6.882255 2.840062 -61.140418 8.247997 7.640067 -89.897878 -0.000003 -0.000000 0.000001 -2.345516 4.688854 -62.655231 8.754142 9.897070 -87.051307 0.000001 -0.000001 0.000000 -9.042448 10.045641 -60.766199 8.524103 9.508787 -66.893063 -0.000002 -0.000001 0.000000 -17.946887 14.754991 -51.485864 8.868422 8.667023 -84.811996 0.000001 0.000000 -0.000000 -0.000000 -0.000002 0.000001 -0.000000 -0.000002 0.000001 -0.000001 -0.000001 0.000002 -0.000001 0.000003 0.000000 -0.000001 0.000001 -0.000001 -0.000001 0.000003 0.000000 -0.000001 0.000003 -0.000001 4.350987 9.519744 -3.915175 -1.908439 -4.831187 1.339514 32.754626 33.258749 -23.829340 -6.484602 12.966938 -27.297556 -1.264355 -6.049199 -2.222019 3.622082 -28.238618 -7.467056 -0.000002 -0.000000 -0.000000 5.510554 -12.536729 32.643742 0.964246 -4.576400 40.090424 0.000002 0.000002 0.000002 2.422450 -10.452736 50.257662 1.705358 -6.329498 40.569954 -0.000002 -0.000003 0.000000 1.697865 -16.683490 49.417836 3.312929 -5.897091 49.275239 -0.000002 -0.000001 0.000000 -0.128113 -24.863977 64.179524 8.350092 -6.902170 80.012948 0.000000 0.000002 -0.000000 0.000001 -0.000001 -0.000001 0.000000 0.000001 -0.000000 0.000001 -0.000001 -0.000001 -0.000001 0.000000 -0.000001 -0.000001 0.000000 -0.000003 -0.000001 0.000000 -0.000001 -0.000001 -0.000000 -0.000001 0.000000 0.000000 -0.000001 0.000000 0.000000 -0.000001 0.000000 0.000000 -0.000001 0.000000 0.000000 -0.000001 0.000000 0.000000 -0.000001 0.000000 0.000000 -0.000001 0.000000 0.000000 -0.000001 -0.000002 0.000002 -0.000001 0.000001 0.000001 -0.000001 
-73.875214 20.025841 6.191868 -58.753123 3.785923 100.789222 -0.000000 -0.000001 0.000001 -30.985167 21.750848 2.426573 66.066152 1.868424 -7.499249 -27.760718 -9.054589 1.783508 0.000001 0.000001 -0.000000 -0.000002 0.000000 -0.000000 -63.120859 -8.555433 -33.020628 122.146568 -1.905295 4.794611 -2.239860 7.556688 25.334034 -0.000001 0.000000 0.000000 0.000003 0.000000 -0.000000 15.958928 -0.842099 -4.962145 15.237944 -0.553108 -2.719566 15.233181 -0.442756 -2.765200 11.746280 2.031668 -2.645384 11.746293 2.031662 -2.645401 -0.000000 0.000000 -0.000001 11.746414 2.031720 -2.645401 11.746240 2.031623 -2.645385 0.000001 0.000000 0.000002 -0.000000 0.000000 -0.000001 5.850631 3.867359 -9.147234 -79.175471 -4.790790 -29.369619 66.580759 -0.196853 0.415287 -130.528576 2.100602 -1.414925 40.109944 -15.297175 -0.360493 5.639803 28.097945 11.338830 -0.000000 -0.000004 -0.000001 6.882254 2.840065 -61.140411 8.247995 7.640069 -89.897878 -0.000000 -0.000001 -0.000000 -2.345517 4.688854 -62.655231 8.754141 9.897073 -87.051307 0.000000 -0.000000 0.000000 -9.042448 10.045653 -60.766192 8.524104 9.508792 -66.893056 0.000001 -0.000002 0.000002 -17.946899 14.755002 -51.485857 8.868418 8.667024 -84.811996 -0.000001 0.000000 -0.000001 0.000001 -0.000001 -0.000000 0.000001 -0.000001 -0.000000 0.000000 -0.000001 0.000000 -0.000001 0.000002 0.000002 -0.000001 0.000001 0.000002 -0.000001 0.000002 0.000002 -0.000001 0.000002 0.000001 3.987318 5.771297 -5.369518 0.856462 3.213922 0.708513 26.740054 31.874932 -18.503117 -6.515402 15.387233 -26.510775 -1.549563 -6.169137 -1.948560 3.754894 -28.218816 -7.731341 -0.000002 -0.000004 -0.000001 5.611881 -12.685520 32.943795 1.033063 -4.592714 40.333350 -0.000001 -0.000002 0.000005 2.535944 -10.495703 50.782286 1.733163 -6.345971 40.670973 -0.000003 -0.000004 0.000002 1.857090 -16.770029 49.979295 3.310368 -5.940992 49.419356 -0.000000 -0.000001 0.000001 0.126682 -25.012653 64.844320 8.394858 -7.019024 80.688494 0.000001 -0.000000 -0.000000 0.000000 -0.000000 -0.000001 0.000002 -0.000000 -0.000000 0.000000 -0.000000 -0.000001 -0.000002 0.000000 -0.000000 -0.000002 0.000000 -0.000000 -0.000002 0.000000 -0.000000 -0.000002 -0.000000 -0.000000 -0.000001 -0.000000 0.000001 -0.000001 -0.000000 0.000001 -0.000001 -0.000000 0.000001 -0.000001 -0.000000 0.000001 -0.000001 -0.000000 0.000001 -0.000001 -0.000000 0.000001 -0.000001 -0.000000 0.000001 0.000002 0.000000 -0.000001 -0.000000 -0.000001 0.000001 
-75.635345 18.504692 6.497000 -58.027853 -0.902026 102.553344 0.000000 -0.000001 0.000000 -24.769206 16.335975 1.579411 64.913653 10.092085 -8.178086 -33.728693 -3.921880 -6.525571 0.000000 0.000000 -0.000000 -0.000001 0.000000 -0.000000 -64.008339 -10.160307 -30.516165 124.938285 -11.042590 2.739207 -9.028474 5.693132 20.022438 0.000000 0.000000 -0.000000 0.000001 0.000001 -0.000002 17.619808 -1.529032 -3.675552 13.624171 -1.732720 -2.465772 13.638204 -1.655713 -2.445537 12.133337 1.661009 -2.667284 12.133333 1.660993 -2.667283 -0.000001 -0.000000 -0.000000 12.133337 1.661005 -2.667288 12.133374 1.660994 -2.667280 0.000000 0.000001 -0.000001 -0.000001 -0.000000 -0.000000 5.241389 7.707911 -14.772693 -82.451503 -2.394244 -28.832865 71.492143 -0.210152 0.553453 -123.104447 0.006961 2.277024 40.109951 -15.297173 -0.360496 5.639800 28.097949 11.338832 0.000001 -0.000003 -0.000001 6.882257 2.840066 -61.140418 8.247996 7.640064 -89.897878 0.000003 0.000000 0.000000 -2.345518 4.688854 -62.655231 8.754139 9.897071 -87.051307 -0.000002 -0.000000 -0.000000 -9.042446 10.045652 -60.766192 8.524100 9.508788 -66.893056 0.000002 0.000001 0.000001 -17.946894 14.754998 -51.485857 8.868421 8.667026 -84.811996 0.000003 -0.000002 -0.000001 0.000002 0.000002 -0.000002 0.000002 0.000002 -0.000002 0.000001 0.000002 -0.000001 -0.000000 -0.000002 -0.000002 0.000000 -0.000003 -0.000003 -0.000000 -0.000002 -0.000002 -0.000002 -0.000003 -0.000003 4.001947 5.115521 -8.837087 0.941038 11.676214 -0.032725 16.412176 34.300151 -10.963366 -9.500788 4.579496 -16.821532 -1.829245 -6.289131 -1.679242 3.885949 -28.199315 -7.991219 -0.000000 -0.000002 -0.000001 5.712087 -12.831501 33.221183 1.100937 -4.608013 40.554344 -0.000001 0.000001 -0.000000 2.647871 -10.536375 51.279865 1.759844 -6.362467 40.753017 -0.000002 0.000000 -0.000002 2.014560 -16.852390 50.513770 3.308020 -5.984371 49.543334 -0.000001 -0.000001 -0.000001 0.379781 -25.154253 65.481748 8.441239 -7.134595 81.335020 -0.000001 0.000007 -0.000000 -0.000000 0.000003 -0.000002 0.000000 0.000002 -0.000001 -0.000000 0.000003 -0.000002 -0.000001 0.000000 0.000001 -0.000001 0.000000 0.000000 -0.000001 0.000000 0.000001 -0.000001 -0.000000 0.000000 0.000001 -0.000001 0.000003 0.000001 -0.000001 0.000003 0.000001 -0.000001 0.000003 0.000001 -0.000001 0.000003 0.000001 -0.000001 0.000003 0.000001 -0.000001 0.000003 0.000001 -0.000001 0.000003 -0.000000 -0.000001 0.000001 0.000000 -0.000001 0.000000 
-76.286652 17.647209 6.694721 -57.866326 -4.912578 104.751592 0.000000 -0.000003 -0.000001 -19.208346 11.648710 -0.105514 64.271042 19.785586 -8.671081 -36.645915 1.843639 -14.448980 0.000001 0.000000 -0.000000 0.000000 0.000000 0.000000 -64.049737 -10.024216 -30.075218 124.660446 -13.928182 2.041796 -9.688109 4.179434 14.597463 -0.000002 0.000001 0.000000 0.000001 0.000000 -0.000002 17.585878 -1.599588 -4.079328 12.355791 -1.761860 -1.940300 12.378813 -1.624624 -1.926826 11.962400 1.146019 -2.239568 11.962405 1.146021 -2.239566 0.000000 0.000000 0.000002 11.962400 1.146019 -2.239558 11.962442 1.145971 -2.239543 0.000000 0.000000 0.000000 0.000000 0.000000 0.000001 3.701487 9.640403 -19.253671 -85.769759 -1.001403 -27.598645 69.277974 -0.255662 0.574482 -109.058512 -7.133577 4.798800 40.109944 -15.297177 -0.360490 5.639801 28.097943 11.338826 -0.000001 0.000000 -0.000004 6.882255 2.840065 -61.140418 8.247996 7.640063 -89.897878 0.000001 0.000000 0.000000 -2.345516 4.688854 -62.655224 8.754139 9.897070 -87.051307 0.000001 -0.000000 0.000000 -9.042448 10.045650 -60.766192 8.524106 9.508790 -66.893056 -0.000002 -0.000001 0.000001 -17.946897 14.755007 -51.485857 8.868422 8.667021 -84.811996 0.000002 -0.000005 0.000001 -0.000002 0.000002 -0.000002 -0.000002 0.000002 -0.000002 -0.000003 0.000002 -0.000001 0.000003 0.000000 -0.000001 0.000004 0.000000 -0.000002 0.000003 0.000000 -0.000001 0.000003 -0.000002 -0.000001 3.553658 17.233481 -9.962803 5.185767 5.341665 -2.433873 15.662616 31.146421 -9.027841 -12.315935 0.733311 -13.862440 -2.103296 -6.408983 -1.414472 4.016377 -28.183514 -8.246981 0.000002 -0.000001 0.000001 5.811191 -12.974712 33.475365 1.167844 -4.622500 40.751846 -0.000003 0.000002 0.000002 2.758038 -10.575051 51.750178 1.786565 -6.378076 40.814338 0.000002 -0.000001 0.000000 2.170277 -16.931219 51.020693 3.305873 -6.027665 49.645947 0.000001 0.000002 0.000000 0.630559 -25.289003 66.090563 8.488859 -7.248928 81.951034 0.000004 -0.000000 0.000001 0.000002 0.000004 0.000000 0.000002 0.000002 -0.000001 0.000002 0.000004 0.000001 0.000001 -0.000001 0.000002 0.000001 0.000000 0.000001 0.000001 -0.000001 0.000002 0.000000 -0.000000 0.000001 -0.000001 0.000001 0.000000 -0.000001 0.000001 0.000000 -0.000001 0.000001 0.000000 -0.000001 0.000001 0.000000 -0.000001 0.000001 0.000000 -0.000001 0.000001 0.000000 -0.000001 0.000001 0.000000 -0.000000 -0.000001 -0.000001 0.000000 -0.000003 -0.000001 
